<?xml version="1.0" encoding="utf-8"?>
<!-- Generator: Adobe Illustrator 15.1.0, SVG Export Plug-In . SVG Version: 6.00 Build 0)  -->
<!DOCTYPE svg PUBLIC "-//W3C//DTD SVG 1.1//EN" "http://www.w3.org/Graphics/SVG/1.1/DTD/svg11.dtd">
<svg version="1.1" id="Layer_1" xmlns="http://www.w3.org/2000/svg" xmlns:xlink="http://www.w3.org/1999/xlink" x="0px" y="0px"
	 width="68px" height="68px" viewBox="0 0 68 68" enable-background="new 0 0 68 68" xml:space="preserve">
<g>
	<path fill="#A28761" d="M64.422,36.8l-0.041-1.21l-0.789,0.86l-1.15-0.366l0.297,0.509c0.074,0.129,0.148,0.258,0.205,0.355
		c0.047,0.097,0.078,0.161,0.078,0.161l-0.787,0.881l1.201-0.117l0.6,1.009l0.283-1.177l1.141-0.337c0,0-0.256-0.144-0.512-0.287
		L64.422,36.8z"/>
	<path fill="#A28761" d="M63.762,40.448l-0.951,0.715l-1.066-0.544l0.383,1.101l-0.859,0.758l1.186,0.073
		c0,0,0.139,0.276,0.229,0.544c0.098,0.272,0.197,0.546,0.197,0.546l0.254-0.55c0.102-0.284,0.203-0.568,0.203-0.568l1.154-0.156
		l-0.928-0.727L63.762,40.448z"/>
	<path fill="#A28761" d="M62.172,45.721l0.16-0.585c0,0-0.252,0.146-0.504,0.291c-0.242,0.146-0.512,0.275-0.512,0.275l-0.969-0.71
		c0,0,0.016,0.072,0.039,0.181c0.018,0.104,0.039,0.245,0.059,0.386c0.043,0.286,0.082,0.571,0.082,0.571l-1.002,0.596l1.168,0.268
		l0.268,1.158l0.617-1.04l1.178,0.039l-0.783-0.86C61.975,46.29,62.096,46.014,62.172,45.721z"/>
	<path fill="#A28761" d="M60.172,49.529l-1.107,0.39l-0.846-0.859l0.039,1.181c0,0-0.271,0.113-0.553,0.213
		c-0.275,0.101-0.553,0.2-0.553,0.2l1.117,0.458l0.057,1.168l0.805-0.905c0,0,0.291,0.061,0.582,0.121
		c0.289,0.055,0.58,0.11,0.58,0.11l-0.66-0.991L60.172,49.529z"/>
	<path fill="#A28761" d="M56.18,53.728l-0.691-0.978l-0.174,1.15l-1.117,0.271l1.018,0.616c0,0-0.008,0.308-0.051,0.588
		c-0.039,0.288-0.078,0.575-0.078,0.575s0.24-0.185,0.48-0.368c0.223-0.205,0.443-0.409,0.443-0.409l1.096,0.399l-0.482-1.074
		l0.734-0.959L56.18,53.728z"/>
	<path fill="#A28761" d="M52.742,57.05l-0.525-1.075c0,0-0.082,0.274-0.178,0.545c-0.096,0.273-0.193,0.546-0.193,0.546
		l-1.162,0.064l0.91,0.778l-0.297,1.151l1.025-0.638l1.025,0.58l-0.295-1.126c0,0,0.232-0.192,0.443-0.41
		c0.205-0.222,0.412-0.443,0.412-0.443S52.754,57.074,52.742,57.05z"/>
	<polygon fill="#A28761" points="48.795,59.746 48.443,58.592 47.932,59.659 46.76,59.509 47.537,60.431 47.047,61.494 
		48.18,61.063 49.104,61.812 48.977,60.627 49.955,59.913 	"/>
	<path fill="#A28761" d="M44.314,60.595l-0.688,0.938l-1.113-0.277l0.613,1.02c0,0-0.15,0.268-0.318,0.496
		c-0.168,0.236-0.338,0.472-0.338,0.472s0.299-0.051,0.598-0.101c0.291-0.079,0.584-0.158,0.584-0.158l0.783,0.862l0.072-1.175
		l1.094-0.511l-1.129-0.379L44.314,60.595z"/>
	<path fill="#A28761" d="M39.887,63.127l0.035-1.203c0.012,0.029-0.834,0.796-0.834,0.796l-1.061-0.491l0.443,1.114l-0.803,0.876
		l1.207-0.08l0.639,0.994l0.264-1.132c0,0,0.072-0.018,0.182-0.045c0.111-0.021,0.256-0.062,0.398-0.118
		c0.287-0.1,0.572-0.199,0.572-0.199s-0.262-0.124-0.525-0.249C40.145,63.269,39.887,63.127,39.887,63.127z"/>
	<path fill="#A28761" d="M35.363,62.476l-0.951,0.694c0,0-0.247-0.14-0.489-0.305c-0.24-0.175-0.479-0.349-0.479-0.349l0.259,1.184
		l-0.929,0.698l1.202,0.164l0.469,1.058l0.44-1.102l1.199-0.163l-0.949-0.697L35.363,62.476z"/>
	<path fill="#A28761" d="M30.768,63.907c-0.203-0.218-0.406-0.438-0.406-0.438l0.41-1.118l-1.042,0.492l-0.855-0.783l0.07,1.192
		l-1.038,0.595l1.173,0.284l0.293,1.136l0.607-0.998c0-0.001,1.204,0.083,1.206,0.049C31.187,64.318,30.972,64.137,30.768,63.907z"
		/>
	<path fill="#A28761" d="M26.27,61.457c0,0-1.123,0.391-1.121,0.359l-0.705-0.945l-0.125,1.198l-1.11,0.387l1.098,0.512l0.102,1.185
		c0,0,0.19-0.22,0.382-0.438c0.19-0.229,0.381-0.458,0.381-0.458l1.194,0.2l-0.686-0.944L26.27,61.457z"/>
	<path fill="#A28761" d="M20.812,60.018c0,0-0.584-0.982-0.565-1.005l-0.317,1.16c0,0-0.287,0.06-0.572,0.101
		c-0.288,0.044-0.575,0.086-0.575,0.086l0.49,0.357c0.12,0.094,0.247,0.175,0.346,0.229c0.098,0.058,0.162,0.097,0.162,0.097
		l-0.078,1.16l0.899-0.765l1.13,0.429l-0.511-1.072l0.749-0.937L20.812,60.018z"/>
	<path fill="#A28761" d="M16.815,57.559l-0.389-1.097l-0.495,1.091L14.74,57.59l0.901,0.804l-0.271,1.145l1.001-0.599
		c0,0,0.257,0.159,0.514,0.318c0.264,0.146,0.538,0.276,0.538,0.276s-0.092-0.275-0.186-0.55c-0.086-0.28-0.157-0.573-0.157-0.573
		l0.884-0.797L16.815,57.559z"/>
	<path fill="#A28761" d="M13.241,54.512l-0.186-1.164l-0.667,1.001l-1.164-0.172l0.735,0.961l-0.461,1.096
		c0,0,0.271-0.105,0.543-0.21c0.275-0.115,0.549-0.229,0.549-0.229l0.962,0.736l-0.166-1.157l1.012-0.659
		C14.4,54.715,13.225,54.537,13.241,54.512z"/>
	<path fill="#A28761" d="M10.232,50.905c0.001,0-0.057-1.146-0.03-1.156l-0.825,0.887l-1.098-0.37c0,0,0.536,1.089,0.565,1.07
		l-0.606,0.991l1.151-0.261l0.804,0.902l0.043-1.186l1.097-0.483L10.232,50.905z"/>
	<path fill="#A28761" d="M7.831,46.873l0.163-1.149l-0.942,0.735L5.975,45.94l0.429,1.127l-0.77,0.889l1.165-0.066
		c0,0,0.154,0.26,0.307,0.52c0.155,0.259,0.345,0.497,0.345,0.497s0.045-0.286,0.088-0.573c0.066-0.292,0.133-0.583,0.133-0.583
		l1.152-0.297L7.831,46.873z"/>
	<path fill="#A28761" d="M7.012,43.235c0,0-0.236-0.176-0.472-0.351c-0.245-0.176-0.461-0.367-0.461-0.367l0.38-1.118l-1.058,0.578
		l-0.948-0.695l0.201,1.194l-0.918,0.756c0,0,0.29,0.033,0.579,0.065c0.297,0.026,0.593,0.054,0.593,0.054l0.512,1.098l0.39-1.101
		L7.012,43.235z"/>
	<path fill="#A28761" d="M4.098,39.733l0.595-1.03l1.196,0.085l-0.784-0.863c0,0,0.123-0.261,0.246-0.521
		c0.125-0.26,0.249-0.513,0.249-0.513l-1.122,0.396c0,0-0.232-0.2-0.419-0.412c-0.196-0.213-0.394-0.426-0.394-0.426l-0.021,0.605
		c0.007,0.303,0.033,0.604,0.033,0.604l-1.001,0.595l1.138,0.306L4.098,39.733z"/>
	<path fill="#A28761" d="M3.503,34.26l0.082,0.6c0,0,0.174-0.232,0.349-0.465c0.174-0.23,0.355-0.455,0.355-0.455l1.176,0.274
		c-0.029,0.006-0.616-0.977-0.616-0.977l0.692-0.942l-1.18,0.213L3.665,31.55l-0.164,1.198l-1.102,0.427l1.056,0.483
		C3.455,33.658,3.448,33.96,3.503,34.26z"/>
	<path fill="#A28761" d="M3.838,29.971l0.874-0.793l1.113,0.458l-0.491-1.069l0.393-0.419c0.218-0.199,0.436-0.399,0.436-0.399
		l-1.211,0.019l-0.499-1.05l-0.398,1.146l-1.129,0.25l0.992,0.651L3.838,29.971z"/>
	<path fill="#A28761" d="M4.849,25.177C4.827,25.163,5.85,24.54,5.85,24.54l1.015,0.627l-0.276-1.121l0.936-0.681l-1.181-0.171
		c0,0-0.095-0.281-0.19-0.564c-0.097-0.285-0.178-0.57-0.178-0.57s-0.137,0.268-0.263,0.542c-0.128,0.274-0.256,0.548-0.256,0.548
		l-1.17,0.06l0.857,0.796C5.144,24.005,4.815,25.167,4.849,25.177z"/>
	<path fill="#A28761" d="M7.096,19.493l-0.43,1.133l1.059-0.483l0.916,0.79l-0.076-0.585c-0.038-0.295-0.04-0.578-0.04-0.578
		l1.062-0.504L8.44,18.902l-0.162-1.168L7.564,18.71l-1.177-0.137c0,0,0.175,0.23,0.351,0.461
		C6.917,19.264,7.096,19.493,7.096,19.493z"/>
	<path fill="#A28761" d="M10.307,16.122l0.77,0.922l0.069-1.17l0.543-0.189c0.28-0.084,0.568-0.153,0.568-0.153l-1.08-0.548
		l0.048-1.161l-0.444,0.413c-0.111,0.103-0.222,0.207-0.305,0.284c-0.085,0.077-0.13,0.136-0.13,0.137l-1.118-0.307l0.571,1.037
		L9.16,16.412L10.307,16.122z"/>
	<path fill="#A28761" d="M13.476,12.546l0.606,1.027l0.277-1.122l1.144-0.169l-0.967-0.7c0,0,0.047-0.293,0.094-0.587
		c0.043-0.3,0.109-0.583,0.109-0.584c-0.016-0.021-0.968,0.72-0.968,0.72l-1.064-0.49l0.39,1.104c0,0-0.828,0.878-0.803,0.901
		C12.282,12.623,13.476,12.546,13.476,12.546z"/>
	<path fill="#A28761" d="M17.175,9.518l0.447,1.126c0,0,0.101-0.278,0.202-0.555c0.119-0.263,0.237-0.525,0.237-0.525l1.173,0.042
		l-0.848-0.853l0.397-1.112L17.7,8.179l-0.98-0.667l0.2,1.141l-0.907,0.805L17.175,9.518z"/>
	<path fill="#A28761" d="M21.328,7.153l0.255,1.175l0.603-1.007c0,0,0.283,0.042,0.567,0.084c0.289,0.065,0.577,0.132,0.577,0.132
		L22.627,6.55l0.582-1.005c0,0-0.292,0.079-0.584,0.159c-0.293,0.08-0.583,0.166-0.583,0.166l-0.848-0.789l0.026,1.184l-1.04,0.616
		L21.328,7.153z"/>
	<path fill="#A28761" d="M25.795,5.46l0.059,1.191l0.768-0.862l1.092,0.384l-0.531-1.069c0,0,0.179-0.238,0.357-0.476
		c0.181-0.237,0.368-0.475,0.368-0.475l-1.19,0.195l-0.714-0.931l-0.169,1.158c0,0-1.143,0.39-1.13,0.423
		c0,0,0.271,0.087,0.547,0.217L25.795,5.46z"/>
	<path fill="#A28761" d="M30.349,5.715c0,0,0.881-0.795,0.891-0.767l1.02,0.596l-0.353-1.153l0.869-0.789l-1.209-0.042L31.011,2.51
		c0,0-0.091,0.274-0.181,0.549c-0.085,0.285-0.171,0.57-0.171,0.57L29.48,3.913l1,0.601L30.349,5.715z"/>
	<path fill="#A28761" d="M34.935,5.503l1-0.595l0.918,0.69l-0.166-1.177c0,0,0.242-0.184,0.486-0.337l0.496-0.301l-0.59-0.138
		c-0.299-0.04-0.6-0.082-0.6-0.082l-0.383-1.1l-0.525,1.053l-1.207,0.042l0.89,0.791L34.935,5.503z"/>
	<path fill="#A28761" d="M39.502,5.997c0-0.03,1.08-0.414,1.08-0.414l0.783,0.869l0.027-1.2l1.078-0.492l-1.141-0.4l-0.199-1.164
		l-0.684,0.938c0.006-0.035-1.205-0.11-1.205-0.111l0.764,0.871L39.502,5.997z"/>
	<path fill="#A28761" d="M45.059,6.992c0,0,0.176,0.219,0.328,0.481l0.305,0.505l0.225-1.188l1.131-0.283l-1.045-0.616
		c0,0,0-0.293,0-0.586c-0.008-0.29-0.014-0.579-0.014-0.579L45.15,5.566l-1.168-0.317l0.602,1.013l-0.67,0.999L45.059,6.992z"/>
	<path fill="#A28761" d="M49.234,9.134l0.484,1.049l0.402-1.122c0,0,0.297-0.038,0.592-0.076c0.301-0.039,0.584-0.043,0.584-0.043
		c0.02-0.027-0.955-0.738-0.955-0.739l0.176-1.156L49.562,7.73L48.48,7.199c0,0,0.109,0.28,0.213,0.56
		c0.102,0.28,0.203,0.559,0.203,0.559l-0.818,0.869L49.234,9.134z"/>
	<path fill="#A28761" d="M52.461,11.813c0.285,0.041,0.57,0.083,0.57,0.083l0.289,1.135l0.582-1.05l1.184,0.069l-0.822-0.886
		l0.367-1.125l-1.043,0.511c0.021-0.028-1.016-0.656-1.018-0.656l0.268,1.129l-0.959,0.741
		C51.879,11.764,52.18,11.772,52.461,11.813z"/>
	<path fill="#A28761" d="M56.34,15.229c0,0,0.053,0.277,0.064,0.58c0.018,0.294,0.037,0.588,0.037,0.588l0.75-0.948l1.135,0.273
		l-0.641-1.028c0,0,0.137-0.261,0.273-0.523c0.129-0.259,0.258-0.519,0.258-0.519l-1.133,0.357l-0.887-0.823l0.062,1.176
		l-1.059,0.572L56.34,15.229z"/>
	<path fill="#A28761" d="M59.049,19.065l-0.055,1.151l0.875-0.807c0,0,0.281,0.103,0.562,0.207c0.264,0.118,0.531,0.235,0.531,0.235
		s-0.027-0.071-0.068-0.177c-0.039-0.107-0.094-0.249-0.164-0.381l-0.27-0.541l0.689-0.943l-1.162,0.164l-0.713-0.974l-0.15,1.186
		l-1.129,0.391L59.049,19.065z"/>
	<path fill="#A28761" d="M60.332,22.713c0.098,0.056,0.219,0.136,0.332,0.22l0.467,0.337l-0.271,1.139l1.002-0.659l1.018,0.61
		l-0.318-1.167l0.848-0.825l-1.16-0.031c0.031-0.015-0.596-1.055-0.596-1.055l-0.285,1.123l-1.193,0.212
		C60.174,22.618,60.236,22.657,60.332,22.713z"/>
	<path fill="#A28761" d="M62.84,26.953l-1.203,0.015l0.871,0.791c0,0-0.086,0.27-0.207,0.541c-0.123,0.269-0.246,0.538-0.246,0.538
		l1.109-0.49l0.871,0.771l-0.082-1.209c0,0,0.238-0.167,0.479-0.333c0.234-0.17,0.469-0.339,0.469-0.339l-1.166-0.211l-0.4-1.143
		L62.84,26.953z"/>
	<path fill="#A28761" d="M63.67,33.102l0.791,0.899l0.043-1.206l1.055-0.513l-1.102-0.397c0,0-0.146-1.197-0.184-1.191
		c0.027,0.003-0.676,0.977-0.676,0.977l-1.178-0.181l0.689,0.924l-0.594,0.995L63.67,33.102z"/>
	<path fill="#A28761" d="M34,0C15.253,0,0,15.252,0,34c0,18.747,15.253,34,34,34s34.001-15.253,34.001-34
		C68.002,15.252,52.748,0,34,0z M34,67.179C15.706,67.179,0.823,52.294,0.823,34C0.823,15.706,15.706,0.823,34,0.823
		S67.18,15.706,67.18,34C67.18,52.294,52.295,67.179,34,67.179z"/>
	<path fill="#A28761" d="M44.943,58.092c0.258-0.159,0.535-0.33,0.799-0.489c0.061-0.203,0.123-0.407,0.174-0.608
		c-0.195,0.06-0.396,0.108-0.596,0.151c-0.213,0.13-0.441,0.271-0.697,0.431c-0.438,0.271-0.848,0.528-1.037,0.62
		c-0.457,0.219-1.348,0.448-1.762,0.283c-0.125-0.048-0.164-0.116-0.186-0.17c-0.061-0.157-0.24-0.234-0.393-0.174
		c-0.158,0.061-0.236,0.237-0.176,0.394c0.092,0.238,0.275,0.417,0.529,0.518c0.178,0.07,0.383,0.099,0.594,0.099
		c0.658,0,1.393-0.273,1.656-0.402C44.07,58.638,44.475,58.385,44.943,58.092z"/>
	<path fill="#A28761" d="M22.874,56.037c0.949,0.34,1.456,0.498,1.456,0.498s-0.452-0.304-1.301-0.816
		c-0.213-0.127-0.45-0.267-0.711-0.422c-0.263-0.151-0.518-0.37-0.815-0.568c-0.572-0.429-1.278-0.843-1.959-1.456
		c-0.348-0.296-0.717-0.6-1.11-0.913c-0.109-0.096-0.217-0.204-0.324-0.308c-0.141,0.351-0.354,0.668-0.638,0.938
		c0.507,0.405,1.01,0.766,1.502,1.067c0.76,0.568,1.548,0.903,2.193,1.249C21.806,55.664,22.399,55.866,22.874,56.037z"/>
	<path fill="#A28761" d="M27.344,9.077c-1.07,0.225-2.074,0.658-3.1,1.009c-0.506,0.194-0.984,0.452-1.477,0.675
		c-0.489,0.232-0.986,0.445-1.438,0.74c-3.746,2.124-6.929,5.119-9.068,8.627c-2.167,3.488-3.407,7.327-3.783,11.087
		c-0.366,3.747,0.181,7.333,1.213,10.429c0.81,2.401,1.903,4.522,3.129,6.317c0.373-0.223,0.809-0.365,1.293-0.417
		c-1.24-1.777-2.341-3.904-3.139-6.324c-0.957-2.938-1.45-6.334-1.076-9.864c0.064-0.44,0.128-0.881,0.195-1.325
		c0.066-0.443,0.111-0.898,0.239-1.324c0.241-0.873,0.373-1.742,0.748-2.648c0.163-0.452,0.326-0.905,0.491-1.36
		c0.14-0.384,0.39-0.839,0.581-1.258c0.212-0.423,0.396-0.867,0.632-1.281c0.249-0.409,0.499-0.822,0.749-1.233
		c2.01-3.302,5.009-6.114,8.532-8.114c0.424-0.279,0.894-0.477,1.354-0.696c0.464-0.209,0.915-0.453,1.389-0.634
		c0.967-0.33,1.911-0.741,2.918-0.95C29.7,9.96,31.77,9.787,33.824,9.73c1.025,0.063,2.061,0.026,3.075,0.219
		c0.51,0.076,1.023,0.13,1.523,0.225l1.475,0.358l0.734,0.18l0.748,0.264l1.49,0.528c0.408,0.169,0.906,0.425,1.355,0.63
		c0.455,0.226,0.936,0.407,1.357,0.694c0.865,0.526,1.754,1.014,2.533,1.653c0.395,0.309,0.818,0.584,1.191,0.916l1.102,1.011
		c0.381,0.324,0.711,0.692,1.037,1.065l0.986,1.099c0.291,0.395,0.58,0.79,0.867,1.182c0.295,0.39,0.584,0.78,0.814,1.206
		c2.033,3.286,3.262,6.922,3.584,10.456c0.33,3.545-0.146,6.911-1.121,9.843c-0.787,2.352-1.834,4.408-3.033,6.135
		c0.021,0.05,0.039,0.101,0.059,0.151c0.457,0.053,0.871,0.179,1.225,0.372c1.201-1.771,2.256-3.87,3.041-6.196
		c1.047-3.099,1.568-6.704,1.227-10.438c-0.334-3.742-1.617-7.594-3.764-11.083c-0.244-0.451-0.547-0.866-0.857-1.279
		c-0.307-0.417-0.611-0.837-0.918-1.256c-0.346-0.389-0.695-0.78-1.041-1.17c-0.344-0.396-0.697-0.786-1.098-1.132l-1.168-1.076
		c-0.395-0.352-0.84-0.649-1.26-0.977c-0.826-0.68-1.766-1.204-2.686-1.765c-0.447-0.3-0.953-0.5-1.436-0.739
		c-0.504-0.232-0.939-0.467-1.502-0.697l-1.49-0.532l-0.744-0.268l-0.803-0.202l-1.611-0.399c-0.541-0.102-1.082-0.162-1.621-0.245
		c-1.078-0.205-2.179-0.175-3.271-0.242C31.641,8.279,29.442,8.469,27.344,9.077z"/>
	<path fill="#A28761" d="M22.206,35.248c-0.326,0-0.638-0.067-0.925-0.185c0.202,1.042,0.513,2.129,0.979,3.196
		c0.152,0.053,0.284,0.162,0.356,0.319c0.139,0.301,0.387,0.53,0.699,0.645c0.069,0.025,0.142,0.021,0.213,0.034v-4.411
		c-0.324,0.21-0.695,0.355-1.106,0.392C22.348,35.244,22.276,35.248,22.206,35.248z"/>
	<path fill="#A28761" d="M46.666,42.359c-0.631-0.227-1.135-0.682-1.432-1.282c-0.396,0.577-0.846,1.135-1.361,1.664
		c0.346,0.204,0.682,0.438,0.998,0.701c0.412,0.34,0.705,0.697,0.928,1.059c0.641-0.639,1.211-1.305,1.717-1.992
		C47.23,42.507,46.943,42.458,46.666,42.359z"/>
	<path fill="#A28761" d="M54.062,34.232c0-0.016,0.008-0.03,0.01-0.046c-0.691-0.321-1.42-0.836-2.023-1.615
		c-0.1,4.568-1.705,9.341-5.738,13.142c0.088,0.324,0.146,0.64,0.197,0.933c0.135,0.767,0.23,1.214,0.639,1.483
		c0.098,0.064,0.164,0.156,0.211,0.257C51.877,44.286,54.16,38.346,54.062,34.232z"/>
	<path fill="#A28761" d="M55.104,33.28c-0.09-1.923-0.648-7.317-3.996-12.248c-0.793-1.169-2.115-1.492-2.953-1.197
		c-0.766,0.267-1.145,1.005-1.064,2.077c0.141,1.909-0.992,3.287-2.955,3.598c-0.996,0.157-2.098,0-3.051-0.427
		c-1.295,0.516-2.533,0.04-3.332-0.528c-0.293,0.424-0.766,0.809-1.461,0.809c-0.504,0-0.887-0.197-1.168-0.464
		c-0.262,0.316-0.644,0.557-1.176,0.557c-0.563,0-0.996-0.276-1.305-0.625c-0.304,0.347-0.742,0.625-1.341,0.625
		c-0.705,0-1.152-0.35-1.417-0.752c-1.002,0.516-2.4,0.312-2.594,0.281c-0.019-0.003-0.031-0.018-0.049-0.023
		c-1.109,0.47-2.409,0.64-3.562,0.458c-2.05-0.323-3.238-1.667-3.103-3.508c0.08-1.073-0.299-1.811-1.066-2.078
		c-0.84-0.291-2.158,0.029-2.951,1.198c-3.357,4.941-3.909,10.327-3.997,12.247c0.898-0.273,2.447-1.074,2.987-3.394
		c0.131-0.559,0.274-1.133,0.42-1.701c0.183-0.999,0.429-1.966,0.729-2.886c0.024-0.074,0.063-0.138,0.11-0.195
		c0.193-0.676,0.363-1.254,0.478-1.64c0.085-0.341,0.168-0.562,0.181-0.592c0.118-0.305,0.458-0.46,0.767-0.354
		c0.309,0.107,0.479,0.441,0.382,0.754c-0.002,0.008-0.058,0.188-0.15,0.498c-0.162,0.657-0.336,1.882,0.308,2.739
		c0.766,1.021,1.563,0.698,1.714,0.623c0.298-0.148,0.669-0.031,0.82,0.265c0.008,0.015,0.275,0.499,0.854,0.662
		c0.232,0.066,0.492,0.066,0.771,0.012c0.153-0.456,0.57-0.775,1.059-0.775h9.692h9.693h0.006c0.465,0,0.863,0.283,1.035,0.688
		c0.4,0.13,0.766,0.165,1.086,0.075c0.578-0.163,0.846-0.648,0.857-0.669c0.158-0.295,0.531-0.412,0.824-0.255
		c0.145,0.071,0.941,0.396,1.705-0.625c0.65-0.865,0.463-2.12,0.301-2.77c-0.088-0.292-0.139-0.46-0.141-0.468
		c-0.096-0.313,0.072-0.646,0.381-0.754c0.311-0.109,0.648,0.049,0.768,0.354c0.012,0.03,0.096,0.252,0.182,0.596
		c0.115,0.387,0.285,0.965,0.479,1.643c0.045,0.055,0.084,0.117,0.107,0.188c0.299,0.917,0.545,1.882,0.727,2.877
		c0.146,0.571,0.291,1.147,0.422,1.709C52.656,32.204,54.203,33.006,55.104,33.28z"/>
	<path fill="#A28761" d="M16.853,32.91c0.091,0.106,0.152,0.24,0.152,0.392c0,0.741,0.603,1.344,1.345,1.344
		c0.741,0,1.344-0.603,1.344-1.344c0-0.095,0.026-0.182,0.064-0.262c-0.001-0.012-0.006-0.022-0.006-0.034
		c-0.006-0.069,0.006-0.133,0.021-0.196c-0.142-2.153,0.072-3.83,0.154-4.359c-0.663-0.021-1.454-0.313-2.126-1.212
		c-0.085-0.113-0.161-0.229-0.227-0.347c-0.135,0.495-0.274,1.015-0.41,1.541C16.903,29.871,16.788,31.38,16.853,32.91z"/>
	<path fill="#A28761" d="M20.999,42.359c-0.276,0.099-0.562,0.147-0.848,0.149c0.516,0.7,1.101,1.38,1.757,2.03
		c0.225-0.374,0.524-0.745,0.951-1.097c0.215-0.177,0.439-0.337,0.667-0.488v-0.502c-0.404-0.442-0.77-0.903-1.096-1.377
		C22.147,41.653,21.65,42.126,20.999,42.359z"/>
	<path fill="#A28761" d="M49.316,35.863c-0.664,0-1.264-0.26-1.721-0.676c-0.246,1.315-0.654,2.702-1.301,4.052
		c0.006,0.084,0,0.171-0.031,0.256c-0.121,0.338-0.104,0.702,0.051,1.026c0.152,0.324,0.424,0.57,0.764,0.691
		c0.338,0.122,0.703,0.104,1.027-0.051c0.324-0.153,0.57-0.424,0.691-0.763c0.035-0.098,0.098-0.175,0.168-0.24
		c0.758-1.491,1.26-3.046,1.551-4.607C50.156,35.743,49.752,35.863,49.316,35.863z"/>
	<path fill="#A28761" d="M44.152,40.5c-0.076,0.007-0.152,0.021-0.23,0.021c-0.025,0-0.053-0.008-0.08-0.009v0.411
		C43.949,40.783,44.053,40.642,44.152,40.5z"/>
	<path fill="#A28761" d="M44.045,29.327c0.098,0.643,0.199,1.705,0.113,3.032c0.047,0.097,0.08,0.203,0.07,0.319
		c-0.061,0.682,0.445,1.287,1.127,1.347c0.609,0.057,1.16-0.354,1.309-0.935c0.162-1.936,0.004-3.512-0.092-4.206
		c-0.199,0.134-0.432,0.256-0.711,0.337c-0.514,0.152-1.068,0.126-1.652-0.037C44.16,29.239,44.104,29.284,44.045,29.327z"/>
	<path fill="#A28761" d="M47.74,28.45c0.082,0.529,0.295,2.209,0.152,4.366c0.016,0.062,0.027,0.123,0.021,0.189
		c0,0.013-0.004,0.024-0.006,0.037c0.037,0.08,0.062,0.167,0.062,0.261c0,0.741,0.604,1.344,1.346,1.344s1.344-0.603,1.344-1.344
		c0-0.151,0.062-0.286,0.152-0.392c0.066-1.528-0.049-3.037-0.309-4.474c-0.137-0.526-0.275-1.047-0.41-1.543
		c-0.068,0.118-0.143,0.234-0.229,0.347C49.193,28.137,48.404,28.429,47.74,28.45z"/>
	<path fill="#A28761" d="M45.463,35.248c-0.07,0-0.143-0.004-0.215-0.01c-0.543-0.049-1.025-0.277-1.406-0.615v4.67
		c0.172,0.011,0.344-0.008,0.512-0.068c0.311-0.115,0.559-0.345,0.697-0.646c0.072-0.159,0.207-0.269,0.361-0.319
		c0.467-1.068,0.777-2.155,0.98-3.198C46.104,35.181,45.789,35.248,45.463,35.248z"/>
	<path fill="#A28761" d="M23.526,29.888c0-0.335-0.094-0.465-0.123-0.498c-0.064-0.039-0.113-0.092-0.167-0.142
		c-0.503,0.108-0.983,0.106-1.433-0.026c-0.278-0.082-0.511-0.203-0.711-0.337c-0.094,0.7-0.25,2.295-0.082,4.25
		c0.167,0.556,0.715,0.94,1.302,0.89c0.681-0.061,1.187-0.666,1.126-1.347c-0.01-0.116,0.022-0.222,0.07-0.319
		c-0.055-0.855-0.034-1.6,0.017-2.197V29.888z"/>
	<path fill="#A28761" d="M20.584,48.129c0.408-0.271,0.504-0.717,0.639-1.484c0.049-0.278,0.104-0.576,0.184-0.884
		c-4.07-3.808-5.689-8.602-5.79-13.188c-0.603,0.779-1.332,1.294-2.023,1.615c0.001,0.016,0.009,0.029,0.008,0.045
		c-0.098,4.127,2.202,10.091,6.751,14.193C20.397,48.308,20.474,48.202,20.584,48.129z"/>
	<path fill="#A28761" d="M18.87,40.4c0.121,0.338,0.365,0.608,0.689,0.762c0.325,0.154,0.691,0.173,1.03,0.051
		c0.698-0.25,1.062-1.021,0.813-1.72c-0.03-0.084-0.038-0.171-0.03-0.254c-0.647-1.35-1.055-2.737-1.301-4.053
		c-0.456,0.417-1.057,0.677-1.721,0.677c-0.436,0-0.839-0.119-1.199-0.312c0.292,1.562,0.795,3.116,1.551,4.608
		C18.773,40.226,18.835,40.303,18.87,40.4z"/>
	<path fill="#A28761" d="M30.253,23.253c0.225,0.055,0.392,0.244,0.42,0.474c0.021,0.141,0.127,0.617,0.627,0.617
		c0.595,0,0.778-0.769,0.78-0.777c0.057-0.246,0.271-0.423,0.523-0.432c0.007,0,0.014,0,0.02,0c0.244,0,0.46,0.159,0.533,0.394
		c0.001,0.005,0.274,0.815,0.791,0.815c0.452,0,0.559-0.712,0.56-0.719c0.036-0.269,0.26-0.473,0.531-0.483
		c0.307,0,0.51,0.176,0.566,0.44c0.016,0.064,0.17,0.669,0.688,0.669c0.551,0,0.727-0.714,0.729-0.721
		c0.047-0.2,0.201-0.358,0.398-0.411c0.201-0.053,0.412,0.009,0.551,0.161c0.043,0.043,0.795,0.814,1.771,0.906
		c-0.459-0.45-0.807-1.001-0.965-1.649c-0.02-0.088-0.02-0.176-0.002-0.26c-0.254-0.87-0.27-1.951,0.031-3.394
		c0.371-1.786,0.275-3.675-0.215-4.21c-0.109-0.12-0.16-0.281-0.143-0.442c0.02-0.161,0.109-0.306,0.242-0.397
		c0.096-0.064,0.197-0.147,0.279-0.228c-1.939-0.938-6.658-1.047-7.875-0.462c-0.238,0.115-0.311,0.214-0.315,0.25
		c-0.012,0.085,0.117,0.269,0.191,0.336c0.179,0.161,0.234,0.419,0.136,0.64c-0.097,0.22-0.322,0.352-0.565,0.329
		c-1.844-0.188-4.058-0.013-4.418,0.6c-0.196,0.333-0.589,1.412-0.659,2.39c0.146-0.27,0.34-0.5,0.611-0.671
		c0.979-0.621,2.704-0.97,4.348,0.084c0.259,0.166,0.334,0.51,0.168,0.769c-0.166,0.259-0.509,0.335-0.77,0.168
		c-0.727-0.466-1.471-0.559-2.1-0.464c0.771,0.207,1.53,0.694,1.995,1.458c0.383,0.628,0.736,1.731,0.027,3.245
		c-0.002,0.034,0.004,0.067-0.003,0.101c-0.139,0.569-0.438,1.068-0.845,1.491c0.333-0.065,0.625-0.184,0.768-0.391
		C29.793,23.287,30.028,23.198,30.253,23.253z M32.778,14.488c0.047-0.031,0.099-0.053,0.149-0.055l2.139,0.061
		c0.146,0.004,0.264,0.128,0.26,0.276c-0.004,0.146-0.123,0.261-0.268,0.261c-0.004,0-0.006,0-0.008,0l-1.487-0.042
		c0.005,0.034,0.02,0.064,0.02,0.1c0,0.349-0.283,0.634-0.635,0.634c-0.35,0-0.633-0.285-0.633-0.634
		C32.316,14.797,32.514,14.564,32.778,14.488z M31.991,18.215c-0.002-0.021-0.004-0.042-0.009-0.064
		c0.002,0.003,0.005,0.007,0.007,0.01C31.998,18.181,31.993,18.198,31.991,18.215z M30.383,15.452
		c0.132,0.253,0.283,0.557,0.454,0.884C30.684,16.077,30.531,15.783,30.383,15.452z"/>
	<polygon fill="#A28761" points="23.516,40.5 23.526,40.514 23.526,40.501 	"/>
	<path fill="#A28761" d="M42.875,53.203c0.139-0.016,0.426-0.232,0.58-0.587c0.07-0.166,0.115-0.385,0.027-0.5
		c-0.4-0.526-1.705-2.255-2.758-3.652c-0.24,0.097-0.488,0.189-0.748,0.281c0.914,1.489,2.152,3.481,2.783,4.369
		C42.826,53.209,42.859,53.201,42.875,53.203z"/>
	<path fill="#A28761" d="M41.633,55.514c0.299-0.369,0.346-0.668,0.305-0.738c-0.393-0.664-2.193-3.677-3.332-5.576
		c-0.045,0.014-0.088,0.028-0.133,0.042c-0.166,0.053-0.322,0.104-0.48,0.156c0.861,2.27,2.17,5.637,2.729,6.654
		C40.848,56.133,41.264,55.97,41.633,55.514z"/>
	<path fill="#A28761" d="M38.023,58.085c0.893-0.384,1.428-0.959,1.453-1.147c-0.324-0.677-1.947-4.595-2.947-7.024
		c-0.338,0.144-0.625,0.299-0.861,0.455c0.094,0.881,0.219,1.965,0.361,3.06c0.328,1.895,0.652,3.74,0.805,4.541
		c0.037,0.121,0.074,0.228,0.109,0.314C37.002,58.327,37.371,58.363,38.023,58.085z"/>
	<path fill="#A28761" d="M27.681,48.844c-0.265-0.09-0.519-0.182-0.767-0.275c-1.039,1.378-2.289,3.035-2.679,3.548
		c-0.089,0.115-0.044,0.334,0.027,0.499c0.152,0.354,0.439,0.572,0.581,0.588c0.013-0.001,0.049,0.005,0.117-0.089
		C25.576,52.246,26.774,50.322,27.681,48.844z"/>
	<path fill="#A28761" d="M26.965,56.098c0.571-1.032,1.858-4.328,2.724-6.602c-0.205-0.065-0.417-0.134-0.633-0.203
		c-1.14,1.904-2.889,4.829-3.275,5.482c-0.042,0.07,0.005,0.367,0.302,0.735C26.452,55.969,26.869,56.13,26.965,56.098z"/>
	<path fill="#A28761" d="M31.886,50.492c-0.206-0.149-0.453-0.304-0.75-0.449c-1.005,2.439-2.58,6.249-2.907,6.955
		c0.037,0.128,0.571,0.703,1.465,1.087c0.389,0.167,0.665,0.215,0.848,0.221c0.01-0.086,0.013-0.171,0.034-0.26
		C30.763,56.926,31.435,53.071,31.886,50.492z"/>
	<path fill="#A28761" d="M34.469,51.539c-0.205,0.195-0.48,0.31-0.772,0.313c-0.006,0-0.011,0.001-0.017,0.001
		c-0.278,0-0.541-0.11-0.746-0.29c-0.438,2.51-0.994,5.701-1.166,6.723c-0.071,0.307-0.03,0.521,0.121,0.712
		c0.34,0.43,1.193,0.686,1.821,0.686c0.626,0,1.478-0.256,1.818-0.685c0.152-0.191,0.195-0.407,0.133-0.677
		C35.457,57.271,34.901,54.057,34.469,51.539z"/>
	<path fill="#A28761" d="M49.521,50.639c0.053-0.131,0.125-0.253,0.223-0.353c0.277-0.284,0.699-0.378,1.076-0.238
		c0.082,0.03,0.156,0.068,0.234,0.104c-0.006-0.041-0.014-0.082-0.016-0.124l-3.889-0.534l-0.281,0.781L49.521,50.639z"/>
	<path fill="#A28761" d="M46.094,48.831c-0.535-0.554-0.662-1.273-0.785-1.976c-0.154-0.887-0.301-1.725-1.211-2.474
		c-0.082-0.067-0.172-0.119-0.256-0.183v0.094c0,2.106-0.906,2.989-1.869,3.567c1.373,1.432,2.871,2.074,3.635,2.326L46.094,48.831z
		"/>
	<path fill="#A28761" d="M51.35,46.9c-0.213,0-0.432,0.203-0.521,0.474c-0.072,0.214-0.156,0.772,0.59,1.328
		c0.158,0.117,0.303,0.187,0.441,0.23c0.109-0.021,0.225-0.03,0.34-0.014c0.033,0.004,0.061,0.014,0.092,0.019
		c0.035-0.018,0.066-0.046,0.096-0.074c-0.072-0.292-0.037-0.581,0.098-0.824C52.307,47.506,51.891,46.92,51.35,46.9z"/>
	<path fill="#A28761" d="M55.24,49.947c0.062-0.087,0.086-0.224,0.057-0.312c-0.375-1.103-1.469-1.278-1.922-1.305c0,0,0,0-0.002,0
		c-0.1,0-0.146,0.043-0.172,0.079c-0.053,0.072-0.061,0.18-0.021,0.296c0.258,0.775,0.988,1.265,1.951,1.308l0.008,0.403l0,0v-0.402
		C55.152,50.014,55.191,50.014,55.24,49.947z"/>
	<path fill="#A28761" d="M52.088,49.723c-0.004,0-0.008-0.001-0.012-0.001c-0.105,0-0.15,0.038-0.174,0.07
		c-0.055,0.068-0.07,0.173-0.041,0.287c0.193,0.798,0.879,1.345,1.834,1.462l0.023,0.003c0.043,0,0.078-0.036,0.102-0.065
		c0.064-0.081,0.096-0.206,0.074-0.292C53.609,50.052,52.535,49.785,52.088,49.723z"/>
	<path fill="#A28761" d="M51.717,52.938l0.035,0.007c0.035,0,0.082-0.025,0.125-0.068c0.066-0.068,0.111-0.17,0.107-0.248
		c-0.031-1.17-1.021-1.662-1.445-1.818c-0.025-0.003-0.047-0.004-0.066-0.004c-0.092,0-0.127,0.025-0.148,0.048
		c-0.057,0.058-0.086,0.147-0.084,0.255C50.256,51.927,50.809,52.61,51.717,52.938z"/>
	<path fill="#A28761" d="M20.861,50.274l-0.28-0.781l-3.889,0.534c-0.002,0.042-0.011,0.083-0.017,0.125
		c0.079-0.036,0.153-0.074,0.236-0.104c0.377-0.139,0.799-0.046,1.078,0.239c0.098,0.099,0.169,0.221,0.222,0.352L20.861,50.274z"/>
	<path fill="#A28761" d="M22.422,46.854c-0.124,0.702-0.25,1.424-0.786,1.977l0.486,1.355c0.74-0.244,2.169-0.855,3.507-2.195
		c-1.015-0.559-2.034-1.386-2.092-3.521C22.72,45.197,22.571,46.004,22.422,46.854z"/>
	<path fill="#A28761" d="M16.313,48.702c0.746-0.556,0.661-1.114,0.59-1.328c-0.091-0.275-0.306-0.474-0.511-0.474
		c-0.548,0.02-0.968,0.605-1.146,1.14c0.135,0.242,0.17,0.529,0.098,0.821c0.033,0.03,0.069,0.055,0.108,0.073
		c0.027-0.005,0.052-0.013,0.08-0.017c0.116-0.016,0.229-0.006,0.339,0.016C16.008,48.89,16.154,48.82,16.313,48.702z"/>
	<path fill="#A28761" d="M14.552,48.704c0.038-0.114,0.03-0.223-0.023-0.295c-0.025-0.036-0.074-0.079-0.159-0.079
		c-0.468,0.025-1.56,0.202-1.936,1.306c-0.03,0.089-0.006,0.226,0.056,0.311c0.047,0.067,0.087,0.067,0.102,0.067v0.402l0,0
		l0.006-0.403C13.562,49.97,14.292,49.479,14.552,48.704z"/>
	<path fill="#A28761" d="M15.87,50.079c0.028-0.114,0.013-0.219-0.041-0.287c-0.026-0.033-0.073-0.072-0.15-0.072
		c-0.485,0.065-1.559,0.332-1.843,1.468c-0.021,0.084,0.011,0.21,0.075,0.292c0.023,0.028,0.059,0.064,0.1,0.064v0.399c0,0,0,0,0,0
		l0.016-0.4C14.99,51.424,15.675,50.877,15.87,50.079z"/>
	<path fill="#A28761" d="M17.491,51.108c0.002-0.107-0.027-0.197-0.083-0.255c-0.027-0.026-0.072-0.059-0.137-0.059
		c-0.503,0.171-1.494,0.662-1.525,1.832c-0.002,0.079,0.042,0.181,0.108,0.248c0.054,0.057,0.104,0.084,0.161,0.062
		C16.921,52.61,17.474,51.927,17.491,51.108z"/>
	<path fill="#A28761" d="M36.406,48.74c1.48-0.543,3.518-1.062,4.648-1.659c0.893-0.473,1.656-0.994,1.656-2.788V29.888
		c0-1.129,0.666-1.462,0.666-1.462h-9.693h-9.692c0,0,0.664,0.333,0.664,1.462v14.405c0,1.794,0.765,2.315,1.659,2.788
		c1.128,0.597,3.167,1.116,4.649,1.659c1.991,0.73,2.721,1.991,2.721,1.991S34.415,49.471,36.406,48.74z M33.684,49.021
		c0,0-0.633-0.839-2.368-1.475c-1.292-0.476-3.062-0.926-4.047-1.446c-0.776-0.412-1.444-0.578-1.444-2.14v-13.22
		c0-0.984-0.095-1.131-0.095-1.131h15.909h0.004h-0.004c0,0-0.096,0.147-0.096,1.131v13.22c0,1.562-0.666,1.728-1.445,2.14
		c-0.982,0.521-2.756,0.971-4.045,1.446C34.32,48.183,33.684,49.021,33.684,49.021z"/>
	<path fill="#A28761" d="M32.888,46.906V33.632h-2.263v12.384c0.383,0.124,0.765,0.249,1.115,0.378
		C32.179,46.556,32.558,46.729,32.888,46.906z"/>
	<path fill="#A28761" d="M36.775,33.632h-2.261v13.254c0.322-0.17,0.693-0.337,1.117-0.493c0.357-0.132,0.752-0.26,1.145-0.388
		V33.632z"/>
	<path fill="#A28761" d="M40.314,33.632h-2.012v11.875c0.479-0.164,0.914-0.33,1.221-0.492c0.084-0.044,0.166-0.085,0.246-0.126
		c0.545-0.275,0.545-0.275,0.545-0.928V33.632z"/>
	<rect x="27.054" y="30.838" fill="#A28761" width="13.261" height="1.514"/>
	<path fill="#A28761" d="M27.845,45.016c0.314,0.166,0.763,0.336,1.255,0.503V33.632h-2.047v10.329c0,0.652,0,0.652,0.542,0.927
		C27.678,44.93,27.761,44.971,27.845,45.016z"/>
	
		<line fill="none" stroke="#182532" stroke-width="0" stroke-linecap="round" stroke-linejoin="round" x1="41.639" y1="29.609" x2="41.643" y2="29.609"/>
	<path fill="#A28761" d="M47.133,57.148c0.662-0.257,1.125-0.619,1.377-1.084c0.455-0.841,0.092-1.796,0.088-1.805
		c-0.125-0.312,0.025-0.667,0.338-0.793c0.213-0.084,0.439-0.035,0.605,0.1c0.236-0.183,0.475-0.376,0.715-0.581
		c-0.299-0.286-0.523-0.623-0.662-0.998c-0.402,0.369-1.447,1.232-2.393,1.232c-1.326,0-2.48,1.689-2.881,2.826
		c0.512-0.011,1.506-0.204,2.271-0.647c0.242-0.141,0.551-0.098,0.744,0.105c0.195,0.202,0.225,0.512,0.074,0.748
		C47.326,56.385,47.219,56.806,47.133,57.148z M46.52,54.808c-0.207-0.085-0.322-0.318-0.236-0.526
		c0.133-0.324,0.455-0.445,0.52-0.467c0.213-0.067,0.441,0.045,0.514,0.258c0.068,0.21-0.043,0.437-0.25,0.511
		c-0.064,0.157-0.227,0.254-0.393,0.254C46.621,54.837,46.57,54.828,46.52,54.808z"/>
</g>
</svg>
